<svg width="32" height="33" viewBox="0 0 32 33" fill="none" xmlns="http://www.w3.org/2000/svg">
<g id="Group">
<g id="Group_2">
<path id="Path" fill-rule="evenodd" clip-rule="evenodd" d="M4 9.56666V9.56666C4 10.3667 4.4 11.0333 5.06667 11.5667L13.0667 17.0333C14.9333 18.2333 17.2 18.2333 19.0667 17.0333L27.0667 11.7C27.6 11.0333 28 10.3667 28 9.56666V9.56666C28 8.23332 26.9333 7.16666 25.6 7.16666H6.4C5.06667 7.16666 4 8.23332 4 9.56666Z" stroke="#8E26C0" stroke-width="1.5" stroke-linecap="round" stroke-linejoin="round"/>
<path id="Path_2" d="M4 9.83331V23.1666C4 24.6333 5.2 25.8333 6.66667 25.8333H25.3333C26.8 25.8333 28 24.6333 28 23.1666V9.83331" stroke="#8E26C0" stroke-width="1.5" stroke-linecap="round" stroke-linejoin="round"/>
<path id="Path_3" d="M4.784 25.0493L12.9093 16.924" stroke="#8E26C0" stroke-width="1.5" stroke-linecap="round" stroke-linejoin="round"/>
<path id="Path_4" d="M19.1467 16.98L27.216 25.0493" stroke="#8E26C0" stroke-width="1.5" stroke-linecap="round" stroke-linejoin="round"/>
</g>
</g>
</svg>
