<svg width="56" height="57" viewBox="0 0 56 57" fill="none" xmlns="http://www.w3.org/2000/svg">
<rect y="0.5" width="56" height="56" rx="28" fill="#F7F4FF"/>
<path fill-rule="evenodd" clip-rule="evenodd" d="M26.4747 30.0253C24.9147 28.4653 23.7387 26.7187 22.9573 24.9467C22.792 24.572 22.8893 24.1333 23.1787 23.844L24.2707 22.7533C25.1653 21.8587 25.1653 20.5933 24.384 19.812L22.8187 18.2467C21.7773 17.2053 20.0893 17.2053 19.048 18.2467L18.1787 19.116C17.1907 20.104 16.7787 21.5293 17.0453 22.9427C17.704 26.4267 19.728 30.2413 22.9933 33.5067C26.2587 36.772 30.0733 38.796 33.5573 39.4547C34.9707 39.7213 36.396 39.3093 37.384 38.3213L38.252 37.4533C39.2933 36.412 39.2933 34.724 38.252 33.6827L36.688 32.1187C35.9067 31.3373 34.64 31.3373 33.86 32.1187L32.656 33.324C32.3667 33.6133 31.928 33.7107 31.5533 33.5453C29.7813 32.7627 28.0347 31.5853 26.4747 30.0253Z" stroke="#8E26C0" stroke-width="1.5" stroke-linecap="round" stroke-linejoin="round"/>
</svg>
