<svg width="38" height="22" viewBox="0 0 38 22" fill="none" xmlns="http://www.w3.org/2000/svg">
<path d="M0 6C0 2.68629 2.68629 0 6 0H32C35.3137 0 38 2.68629 38 6V16C38 19.3137 35.3137 22 32 22H6C2.68629 22 0 19.3137 0 16V6Z" fill="white" fill-opacity="0.1"/>
<path d="M0.5 6C0.5 2.96243 2.96243 0.5 6 0.5H32C35.0376 0.5 37.5 2.96243 37.5 6V16C37.5 19.0376 35.0376 21.5 32 21.5H6C2.96243 21.5 0.5 19.0376 0.5 16V6Z" stroke="white" stroke-opacity="0.3"/>
<path d="M14.0536 6.27273V15H12.8434L8.40732 8.59943H8.32635V15H7.00959V6.27273H8.22834L12.6687 12.6818H12.7496V6.27273H14.0536ZM18.6932 15.1321C18.0483 15.1321 17.4929 14.9943 17.027 14.7188C16.5639 14.4403 16.206 14.0497 15.9531 13.5469C15.7031 13.0412 15.5781 12.4489 15.5781 11.7699C15.5781 11.0994 15.7031 10.5085 15.9531 9.99716C16.206 9.4858 16.5582 9.08665 17.0099 8.79972C17.4645 8.51278 17.9957 8.36932 18.6037 8.36932C18.973 8.36932 19.331 8.4304 19.6776 8.55256C20.0241 8.67472 20.3352 8.86648 20.6108 9.12784C20.8864 9.3892 21.1037 9.72869 21.2628 10.1463C21.4219 10.5611 21.5014 11.0653 21.5014 11.6591V12.1108H16.2983V11.1562H20.2528C20.2528 10.821 20.1847 10.5241 20.0483 10.2656C19.9119 10.0043 19.7202 9.7983 19.473 9.64773C19.2287 9.49716 18.9418 9.42188 18.6122 9.42188C18.2543 9.42188 17.9418 9.50994 17.6747 9.68608C17.4105 9.85937 17.206 10.0866 17.0611 10.3679C16.919 10.6463 16.848 10.9489 16.848 11.2756V12.0213C16.848 12.4588 16.9247 12.831 17.0781 13.1378C17.2344 13.4446 17.4517 13.679 17.7301 13.8409C18.0085 14 18.3338 14.0795 18.706 14.0795C18.9474 14.0795 19.1676 14.0455 19.3665 13.9773C19.5653 13.9062 19.7372 13.8011 19.8821 13.6619C20.027 13.5227 20.1378 13.3509 20.2145 13.1463L21.4205 13.3636C21.3239 13.7187 21.1506 14.0298 20.9006 14.2969C20.6534 14.5611 20.3423 14.767 19.9673 14.9148C19.5952 15.0597 19.1705 15.1321 18.6932 15.1321ZM24.3224 15L22.3963 8.45455H23.7131L24.9957 13.2614H25.0597L26.3466 8.45455H27.6634L28.9418 13.2401H29.0057L30.2798 8.45455H31.5966L29.6747 15H28.375L27.0455 10.2741H26.9474L25.6179 15H24.3224Z" fill="white"/>
</svg>
