<svg width="32" height="33" viewBox="0 0 32 33" fill="none" xmlns="http://www.w3.org/2000/svg">
<path d="M7.99667 18.038C5.54631 19.1371 3.995 20.7271 3.995 22.5025C3.995 25.8172 9.36924 28.505 16 28.505C22.6308 28.505 28.005 25.8172 28.005 22.5025C28.005 20.7271 26.4537 19.1371 24.0033 18.038" stroke="#8E26C0" stroke-width="1.5" stroke-linecap="round" stroke-linejoin="round"/>
<path d="M20.8714 23.1695C19.4259 24.11 17.723 24.5763 16 24.5034C14.277 24.5763 12.5741 24.11 11.1286 23.1695" stroke="#8E26C0" stroke-width="1.5" stroke-linecap="round" stroke-linejoin="round"/>
<path d="M18.9346 5.71285C20.1237 6.90194 20.4795 8.69027 19.8359 10.2439C19.1924 11.7976 17.6763 12.8106 15.9947 12.8106C14.313 12.8106 12.7969 11.7976 12.1534 10.2439C11.5099 8.69027 11.8656 6.90194 13.0548 5.71285C13.8343 4.93284 14.8919 4.4946 15.9947 4.4946C17.0974 4.4946 18.155 4.93284 18.9346 5.71285" stroke="#8E26C0" stroke-width="1.5" stroke-linecap="round" stroke-linejoin="round"/>
<path d="M16 12.8078V20.5017" stroke="#8E26C0" stroke-width="1.5" stroke-linecap="round" stroke-linejoin="round"/>
</svg>
